<svg width="37" height="36" viewBox="0 0 37 36" fill="none" xmlns="http://www.w3.org/2000/svg">
<rect x="36.5" y="35.5" width="36" height="35" rx="17.5" transform="rotate(-180 36.5 35.5)" fill="white"/>
<path d="M16.3871 12.2375L21.8226 17.5567C21.8871 17.6201 21.9327 17.6887 21.9594 17.7625C21.9865 17.8364 22 17.9156 22 18C22 18.0844 21.9865 18.1636 21.9594 18.2375C21.9327 18.3113 21.8871 18.3799 21.8226 18.4433L16.3871 23.7784C16.2366 23.9261 16.0484 24 15.8226 24C15.5968 24 15.4032 23.9208 15.2419 23.7625C15.0806 23.6042 15 23.4195 15 23.2084C15 22.9974 15.0806 22.8127 15.2419 22.6544L19.9839 18L15.2419 13.3456C15.0914 13.1979 15.0161 13.0159 15.0161 12.7998C15.0161 12.5832 15.0968 12.3958 15.2581 12.2375C15.4194 12.0792 15.6075 12 15.8226 12C16.0376 12 16.2258 12.0792 16.3871 12.2375Z" fill="#5885E9"/>
<rect x="36.5" y="35.5" width="36" height="35" rx="17.5" transform="rotate(-180 36.5 35.5)" stroke="white"/>
</svg>
