<svg width="37" height="36" viewBox="0 0 37 36" fill="none" xmlns="http://www.w3.org/2000/svg">
<rect x="0.5" y="0.5" width="36" height="35" rx="17.5" fill="white"/>
<path d="M20.6129 23.7625L15.1774 18.4433C15.1129 18.3799 15.0673 18.3113 15.0406 18.2375C15.0135 18.1636 15 18.0844 15 18C15 17.9156 15.0135 17.8364 15.0406 17.7625C15.0673 17.6887 15.1129 17.6201 15.1774 17.5567L20.6129 12.2216C20.7634 12.0739 20.9516 12 21.1774 12C21.4032 12 21.5968 12.0792 21.7581 12.2375C21.9194 12.3958 22 12.5805 22 12.7916C22 13.0026 21.9194 13.1873 21.7581 13.3456L17.0161 18L21.7581 22.6544C21.9086 22.8021 21.9839 22.9841 21.9839 23.2002C21.9839 23.4168 21.9032 23.6042 21.7419 23.7625C21.5806 23.9208 21.3925 24 21.1774 24C20.9624 24 20.7742 23.9208 20.6129 23.7625Z" fill="#5885E9"/>
<rect x="0.5" y="0.5" width="36" height="35" rx="17.5" stroke="white"/>
</svg>
