<svg width="22" height="16" viewBox="0 0 22 16" fill="none" xmlns="http://www.w3.org/2000/svg">
<g clip-path="url(#clip0_549_39078)">
<path d="M11.7381 6.26063C11.7381 6.51749 11.7216 6.77407 11.6886 7.02869L11.7063 6.89457C11.64 7.39853 11.5091 7.89132 11.317 8.36021L11.3666 8.23939C11.1776 8.69698 10.9322 9.12782 10.6361 9.52137L10.7128 9.41947C10.4178 9.80966 10.0758 10.16 9.69494 10.4622L9.7944 10.3837C9.41022 10.6869 8.98966 10.9384 8.54303 11.132L8.66097 11.0813C8.20328 11.278 7.72225 11.4121 7.23033 11.48L7.36085 11.4619C6.86319 11.5291 6.35906 11.5291 5.8614 11.4619L5.99193 11.48C5.50013 11.4121 5.01923 11.278 4.56167 11.0813L4.67962 11.132C4.23298 10.9384 3.81243 10.6869 3.42824 10.3837L3.52771 10.4622C3.14693 10.1599 2.80494 9.80957 2.50986 9.41947L2.58849 9.52137C2.2917 9.12878 2.04516 8.6989 1.85489 8.24221L1.90442 8.36303C1.71235 7.89414 1.58148 7.40135 1.51521 6.89739L1.5329 7.03151C1.46725 6.52168 1.46725 6.00522 1.5329 5.49539L1.51521 5.62911C1.58148 5.12515 1.71235 4.63236 1.90442 4.16347L1.85489 4.2843C2.04388 3.82674 2.28937 3.3959 2.58535 3.00231L2.50672 3.10421C2.80179 2.71399 3.14377 2.3635 3.52456 2.06107L3.4251 2.14162C3.80919 1.83826 4.22976 1.58676 4.67647 1.39329L4.55853 1.44404C5.01603 1.24709 5.49695 1.11301 5.98878 1.04531L5.85826 1.06343C6.35592 0.996171 6.86005 0.996171 7.35771 1.06343L7.22718 1.04531C7.71914 1.11301 8.20019 1.24708 8.65783 1.44404L8.53989 1.39329C8.98659 1.58676 9.40717 1.83826 9.79126 2.14162L9.69179 2.06107C10.0727 2.3634 10.4147 2.7139 10.7096 3.10421L10.633 3.00231C10.9291 3.3958 11.1746 3.82666 11.3634 4.2843L11.3139 4.16347C11.506 4.63236 11.6368 5.12515 11.7031 5.62911L11.6854 5.49539C11.7184 5.75001 11.735 6.00659 11.735 6.26345C11.7369 6.39666 11.7885 6.52407 11.8792 6.61949C11.9718 6.71307 12.0963 6.76595 12.2264 6.7669C12.4925 6.75442 12.7182 6.54579 12.7178 6.26345C12.7184 5.61384 12.6201 4.96811 12.4265 4.34954C12.2399 3.7526 11.9657 3.1882 11.6135 2.67568C11.428 2.40538 11.2231 2.14959 11.0006 1.91043C10.7752 1.67485 10.5329 1.45701 10.2756 1.25877C9.02552 0.293989 7.4612 -0.141475 5.90641 0.0425023C4.35162 0.226479 2.92539 1.01581 1.9229 2.24714C1.50524 2.75309 1.1716 3.32593 0.935325 3.94276C0.701415 4.53867 0.560007 5.16842 0.516235 5.80914C0.426392 7.07871 0.716668 8.34616 1.34832 9.44231C1.97996 10.5385 2.92294 11.4112 4.05137 11.944C4.65084 12.2317 5.29354 12.4134 5.95222 12.4812C7.18903 12.6194 8.43753 12.3672 9.53053 11.7583C10.6235 11.1494 11.5088 10.2129 12.0679 9.07431C12.3476 8.50729 12.5398 7.89929 12.6376 7.27196C12.6897 6.93744 12.7172 6.59938 12.7198 6.26063C12.7183 6.12812 12.6672 6.00125 12.5771 5.9062C12.4845 5.81242 12.3597 5.75951 12.2295 5.75879C11.963 5.76927 11.7385 5.9783 11.7381 6.26063Z" fill="#494949"/>
<path d="M10.3899 10.5249L11.0547 11.206L12.5801 12.7687L14.2596 14.4893L15.3997 15.6573C15.5459 15.8071 15.6627 15.9533 15.8994 15.9606C15.9721 15.963 16.0452 15.9606 16.118 15.9606L17.5246 15.9662L19.7482 15.9755L22.1704 15.9852L24.2147 15.9936L25.2916 15.998H25.3407C25.5978 15.998 25.8439 15.7656 25.8321 15.4946C25.8203 15.2235 25.6163 14.9919 25.3407 14.9911L24.3972 14.9871L22.1445 14.9778L19.4208 14.9678L17.0619 14.9581C16.6806 14.9581 16.298 14.9464 15.9167 14.9537H15.901L16.2485 15.1011L15.7335 14.5751L14.4994 13.3108L13.0117 11.786L11.7211 10.4637C11.5119 10.2499 11.3063 10.0316 11.092 9.81931L11.0834 9.81005C10.9014 9.62357 10.568 9.60867 10.3883 9.81005C10.2086 10.0114 10.1941 10.3232 10.3883 10.5221L10.3899 10.5249Z" fill="#494949"/>
</g>
<defs>
<clipPath id="clip0_549_39078">
<rect width="21" height="16" fill="white" transform="translate(0.5)"/>
</clipPath>
</defs>
</svg>
