<svg width="18" height="18" viewBox="0 0 18 18" fill="none" xmlns="http://www.w3.org/2000/svg">
<g clip-path="url(#clip0_549_38741)">
<path fill-rule="evenodd" clip-rule="evenodd" d="M17.8365 5.78928C17.8888 5.84153 17.9304 5.9036 17.9588 5.97194C17.9871 6.04028 18.0017 6.11354 18.0017 6.18753C18.0017 6.26152 17.9871 6.33478 17.9588 6.40312C17.9304 6.47145 17.8888 6.53353 17.8365 6.58578L14.4615 9.96078C14.4092 10.0132 14.3471 10.0547 14.2788 10.0831C14.2105 10.1114 14.1372 10.126 14.0632 10.126C13.9892 10.126 13.916 10.1114 13.8476 10.0831C13.7793 10.0547 13.7172 10.0132 13.665 9.96078L11.9775 8.27328C11.8718 8.16766 11.8125 8.0244 11.8125 7.87503C11.8125 7.72566 11.8718 7.5824 11.9775 7.47678C12.0831 7.37116 12.2263 7.31182 12.3757 7.31182C12.5251 7.31182 12.6683 7.37116 12.774 7.47678L14.0632 8.76715L17.04 5.78928C17.0922 5.73689 17.1543 5.69533 17.2226 5.66698C17.291 5.63862 17.3642 5.62402 17.4382 5.62402C17.5122 5.62402 17.5855 5.63862 17.6538 5.66698C17.7221 5.69533 17.7842 5.73689 17.8365 5.78928Z" fill="#5885E9"/>
<path d="M1.125 15.75C1.125 15.75 0 15.75 0 14.625C0 13.5 1.125 10.125 6.75 10.125C12.375 10.125 13.5 13.5 13.5 14.625C13.5 15.75 12.375 15.75 12.375 15.75H1.125ZM6.75 9C7.64511 9 8.50355 8.64442 9.13649 8.01149C9.76942 7.37855 10.125 6.52011 10.125 5.625C10.125 4.72989 9.76942 3.87145 9.13649 3.23851C8.50355 2.60558 7.64511 2.25 6.75 2.25C5.85489 2.25 4.99645 2.60558 4.36351 3.23851C3.73058 3.87145 3.375 4.72989 3.375 5.625C3.375 6.52011 3.73058 7.37855 4.36351 8.01149C4.99645 8.64442 5.85489 9 6.75 9Z" fill="#5885E9"/>
</g>
<defs>
<clipPath id="clip0_549_38741">
<rect width="18" height="18" fill="white"/>
</clipPath>
</defs>
</svg>
