<svg width="542" height="431" viewBox="0 0 542 431" fill="none" xmlns="http://www.w3.org/2000/svg">
<g clip-path="url(#clip0_549_38897)">
<rect x="81.7881" y="103.782" width="460.212" height="289.368" rx="8" fill="white"/>
<rect x="289.311" y="188.028" width="113.527" height="112.329" rx="12" fill="#F3F3F3"/>
<path d="M143.859 99.0668L79.3828 90.4756L92.4308 24.4316L161.694 38.1012L143.859 99.0668Z" fill="#2F2E41"/>
<path d="M81.8789 384.785V112.329C81.8789 107.392 85.8976 103.375 90.8379 103.375H533.041C537.981 103.375 542 107.392 542 112.329V384.785C542 389.723 537.981 393.74 533.041 393.74H90.8379C85.8976 393.74 81.8789 389.723 81.8789 384.785ZM540.377 112.329C540.377 108.28 537.092 104.997 533.041 104.997H90.8379C86.7863 104.997 83.5019 108.28 83.5019 112.329V384.785C83.5019 388.835 86.7863 392.118 90.8379 392.118H405.153C479.835 392.118 540.377 331.608 540.377 256.965V112.329Z" fill="#3F3D56"/>
<path d="M497.228 144.169L490.55 141.007C493.289 144.828 495.649 150.795 496.913 155.544C499.053 151.12 502.502 145.708 505.916 142.476L498.857 144.291C503.207 122.985 519.566 107.69 538.3 107.69L538.565 106.921C518.997 106.921 501.669 122.004 497.228 144.169V144.169Z" fill="#3F3D56"/>
<path d="M527.967 176.632H485.769C483.98 176.632 482.523 175.176 482.523 173.387C482.523 171.598 483.98 170.143 485.769 170.143H527.967C529.757 170.143 531.213 171.598 531.213 173.387C531.213 175.176 529.757 176.632 527.967 176.632Z" fill="#D8D8D8"/>
<path d="M402.679 200.999V286.973C402.679 294.576 396.491 300.761 388.884 300.761H302.865C295.258 300.761 289.069 294.576 289.069 286.973V200.999C289.069 193.396 295.258 187.211 302.865 187.211H388.884C396.491 187.211 402.679 193.396 402.679 200.999ZM383.548 299.139C393.217 299.139 401.056 291.304 401.056 281.639V243.628C401.056 213.366 376.511 188.833 346.232 188.833H302.865C296.142 188.833 290.692 194.28 290.692 200.999V274.978C290.692 288.322 301.515 299.139 314.866 299.139H383.548Z" fill="#3F3D56"/>
<path d="M357.325 222.324H329.555C328.855 222.324 328.285 221.754 328.285 221.055C328.285 220.355 328.855 219.786 329.555 219.786H357.325C358.025 219.786 358.594 220.355 358.594 221.055C358.594 221.754 358.025 222.324 357.325 222.324V222.324Z" fill="#3F3D56"/>
<path d="M357.325 249.384H329.555C328.855 249.384 328.285 248.815 328.285 248.115C328.285 247.415 328.855 246.846 329.555 246.846H357.325C358.025 246.846 358.594 247.415 358.594 248.115C358.594 248.815 358.025 249.384 357.325 249.384V249.384Z" fill="#3F3D56"/>
<path d="M343.53 286.694H315.76C315.06 286.694 314.49 286.124 314.49 285.425C314.49 284.725 315.06 284.156 315.76 284.156H343.53C344.23 284.156 344.8 284.725 344.8 285.425C344.8 286.124 344.23 286.694 343.53 286.694V286.694Z" fill="#3F3D56"/>
<path d="M372.227 235.863H314.654C313.953 235.863 313.384 235.294 313.384 234.594C313.384 233.894 313.953 233.325 314.654 233.325H372.227C372.927 233.325 373.497 233.894 373.497 234.594C373.497 235.294 372.927 235.863 372.227 235.863V235.863Z" fill="#3F3D56"/>
<path d="M149.007 245.447H53.8389C61.8158 227.657 66.7199 210.714 59.0535 197.237L149.007 192.025C144.512 210.218 143.963 228.073 149.007 245.447Z" fill="#FFB6B6"/>
<path d="M181.784 393.74H111.82C111.314 393.74 110.852 393.451 110.632 392.996L110.205 392.118L100.908 373.043C100.309 371.815 98.4671 372.193 98.4012 373.558L97.5054 392.118L97.487 392.486C97.4519 393.188 96.8717 393.74 96.1679 393.74H27.2825C26.5865 393.74 26.0094 393.199 25.9638 392.505C25.9553 392.375 25.947 392.246 25.9392 392.118C21.5409 324.271 37.357 278.283 46.6325 257.706L46.6406 257.698C50.2842 249.604 52.9297 245.443 52.9297 245.443L53.8467 245.435H53.8548L72.3814 245.11H72.3895L88.7981 244.835L101.198 244.632L106.172 244.543H106.18L109.297 244.494L124.788 244.226L138.624 243.991L148.557 243.829H148.833L150.31 250.196V250.204L150.367 250.488V250.496L150.618 251.542L150.626 251.575L151.129 253.773V253.789L151.162 253.911V253.919L151.284 254.446L151.292 254.47L152.46 259.523L154.351 267.739L156.842 278.486L159.983 292.128L161.573 298.998L163.756 308.463L183.07 392.118C183.265 392.946 182.636 393.74 181.784 393.74H181.784Z" fill="#2F2E41"/>
<path d="M135.267 87.0153L97.394 85.6945L82.4231 105.759L74.5458 107.469C62.7375 110.032 54.6372 120.917 55.5781 132.957L59.1565 216.374L60.7795 226.107L150.045 240.707L170.116 114.465L143.705 104.981L135.267 87.0153Z" fill="#D8D8D8"/>
<path d="M121.446 83.8511C140.222 83.8511 155.442 68.6386 155.442 49.873C155.442 31.1074 140.222 15.8949 121.446 15.8949C102.671 15.8949 87.4502 31.1074 87.4502 49.873C87.4502 68.6386 102.671 83.8511 121.446 83.8511Z" fill="#FFB6B6"/>
<path d="M500.035 390.585L470.562 379.638C466.141 377.996 463.882 373.066 465.524 368.647L494.479 290.776C496.122 286.358 501.055 284.099 505.476 285.741L534.948 296.688C539.369 298.33 541.629 303.261 539.986 307.679C528.907 339.153 516.822 374.519 511.031 385.55C509.388 389.969 504.455 392.227 500.035 390.585Z" fill="#3F3D56"/>
<path d="M532.725 328.463C532.538 328.393 532.33 328.489 532.26 328.676L528.227 339.523C528.157 339.71 528.253 339.918 528.44 339.988C528.627 340.057 528.836 339.962 528.905 339.775L532.938 328.928C533.008 328.741 532.912 328.532 532.725 328.463Z" fill="#3F3D56"/>
<path d="M539.223 307.396L510.268 385.266C508.838 389.111 504.674 391.145 500.796 389.982L500.795 389.981C500.738 389.964 500.68 389.947 500.622 389.927C500.52 389.895 500.419 389.859 500.318 389.822C500.318 389.822 499.955 389.656 499.292 389.352C498.622 389.045 497.649 388.597 496.436 388.033C496.072 387.865 495.689 387.686 495.284 387.497C494.478 387.12 493.594 386.707 492.647 386.259C492.269 386.082 491.878 385.896 491.48 385.707C489.441 384.744 487.161 383.656 484.763 382.491C484.357 382.296 483.948 382.098 483.536 381.897C483.429 381.843 465.95 369.838 466.288 368.93L495.242 291.06C496.731 287.055 501.186 285.015 505.193 286.504L509.524 288.112C510.216 288.369 510.572 289.115 510.374 289.827C510.362 289.874 510.351 289.922 510.342 289.971C510.21 290.711 510.666 291.43 511.372 291.692L526.595 297.347C527.3 297.609 528.116 297.362 528.499 296.715C528.524 296.672 528.547 296.629 528.569 296.585C528.884 295.917 529.641 295.585 530.333 295.842L534.664 297.45C538.671 298.939 540.712 303.391 539.223 307.396V307.396Z" fill="#D8D8D8"/>
<path d="M489.663 303.209C489.476 303.139 489.268 303.235 489.198 303.422L488.19 306.133C488.12 306.32 488.216 306.529 488.403 306.598C488.59 306.668 488.798 306.572 488.868 306.385L489.876 303.674C489.946 303.487 489.85 303.278 489.663 303.209Z" fill="#3F3D56"/>
<path d="M486.639 311.344C486.452 311.275 486.243 311.37 486.174 311.557L484.22 316.811C484.15 316.998 484.246 317.207 484.433 317.276C484.62 317.346 484.829 317.25 484.898 317.063L486.852 311.809C486.921 311.622 486.826 311.414 486.639 311.344Z" fill="#3F3D56"/>
<path d="M483.865 318.802C483.678 318.732 483.47 318.828 483.4 319.015L481.447 324.269C481.377 324.456 481.473 324.664 481.66 324.734C481.847 324.803 482.055 324.708 482.125 324.521L484.078 319.267C484.148 319.08 484.052 318.871 483.865 318.802Z" fill="#3F3D56"/>
<path d="M508.963 289.255L502.481 286.847C502.444 286.834 502.404 286.852 502.391 286.888L502.124 287.605C502.111 287.641 502.129 287.681 502.165 287.694L508.648 290.102C508.684 290.116 508.724 290.097 508.738 290.061L509.004 289.345C509.018 289.308 508.999 289.268 508.963 289.255Z" fill="#E6E6E6"/>
<path d="M530.9 298.319C531.3 298.319 531.624 297.996 531.624 297.596C531.624 297.197 531.3 296.873 530.9 296.873C530.501 296.873 530.177 297.197 530.177 297.596C530.177 297.996 530.501 298.319 530.9 298.319Z" fill="#E6E6E6"/>
<path d="M532.766 299.012C533.165 299.012 533.489 298.689 533.489 298.289C533.489 297.89 533.165 297.566 532.766 297.566C532.366 297.566 532.042 297.89 532.042 298.289C532.042 298.689 532.366 299.012 532.766 299.012Z" fill="#E6E6E6"/>
<path d="M534.631 299.705C535.031 299.705 535.354 299.381 535.354 298.982C535.354 298.583 535.031 298.259 534.631 298.259C534.231 298.259 533.907 298.583 533.907 298.982C533.907 299.381 534.231 299.705 534.631 299.705Z" fill="#E6E6E6"/>
<path d="M427.773 144.691H402.322C399.047 144.691 396.383 142.028 396.383 138.754V110.073C396.383 106.8 399.047 104.137 402.322 104.137H427.773C431.048 104.137 433.712 106.8 433.712 110.073V138.754C433.712 142.028 431.048 144.691 427.773 144.691Z" fill="#F3F3F3"/>
<path d="M427.773 144.691H402.322C399.047 144.691 396.383 142.028 396.383 138.754C395.103 128.193 394.751 118.357 396.383 110.073C396.383 106.8 399.047 104.137 402.322 104.137H427.773C431.048 104.137 433.712 106.8 433.712 110.073V138.754C433.712 142.028 431.048 144.691 427.773 144.691V144.691ZM402.322 104.948C399.495 104.948 397.195 107.247 397.195 110.073V138.754C397.195 141.581 399.495 143.88 402.322 143.88H427.773C430.6 143.88 432.901 141.581 432.901 138.754V110.073C432.901 107.247 430.6 104.948 427.773 104.948H402.322Z" fill="#3F3D56"/>
<path d="M425.201 121.575H404.231C403.342 121.575 402.618 120.852 402.618 119.963C402.618 119.074 403.342 118.35 404.231 118.35H425.201C426.091 118.35 426.814 119.074 426.814 119.963C426.814 120.852 426.091 121.575 425.201 121.575Z" fill="#D8D8D8"/>
<path d="M425.201 130.497H404.231C403.342 130.497 402.618 129.774 402.618 128.885C402.618 127.996 403.342 127.272 404.231 127.272H425.201C426.091 127.272 426.814 127.996 426.814 128.885C426.814 129.774 426.091 130.497 425.201 130.497Z" fill="#D8D8D8"/>
<path d="M425.201 112.653H404.231C403.342 112.653 402.618 111.93 402.618 111.041C402.618 110.152 403.342 109.429 404.231 109.429H425.201C426.091 109.429 426.814 110.152 426.814 111.041C426.814 111.93 426.091 112.653 425.201 112.653Z" fill="#D8D8D8"/>
<path d="M109.887 94.4292C111.75 97.9391 114.252 100.738 116.904 102.548L132.537 137.105L148.771 129.189L131.165 94.9868C131.153 91.7767 130.238 88.1373 128.375 84.6274C124.12 76.609 116.531 72.3031 111.426 75.0098C106.321 77.7165 105.632 86.4108 109.887 94.4292L109.887 94.4292Z" fill="#FFB6B6"/>
<path d="M145.088 116.211C145.088 116.211 168.899 103.74 176.286 116.834C182.59 128.006 187.144 183.911 188.345 200.083C188.556 202.921 187.815 205.74 186.238 208.111V208.111C181.569 215.131 171.503 215.8 165.945 209.46L117.696 114.51L140.582 103.639L146.18 117.188L145.088 116.211V116.211Z" fill="#D8D8D8"/>
<path d="M195.994 249.975C196.517 249.234 196.825 248.332 196.825 247.357V164.146C196.825 161.635 194.788 159.599 192.276 159.599H66.4279C63.9156 159.599 61.8789 161.635 61.8789 164.146V247.357C61.8789 248.332 62.187 249.234 62.7098 249.975H46.9922V254.337C101.639 257.391 156.545 257.391 211.711 254.337V249.975H195.994Z" fill="#3F3D56"/>
<path d="M331.203 431H305.753C302.478 431 299.813 428.337 299.813 425.064V396.382C299.813 393.109 302.478 390.446 305.753 390.446H331.203C334.478 390.446 337.143 393.109 337.143 396.382V425.064C337.143 428.337 334.478 431 331.203 431Z" fill="white"/>
<path d="M331.204 431H305.753C302.478 431 299.814 428.337 299.814 425.064C298.534 414.503 298.181 404.666 299.814 396.382C299.814 393.109 302.478 390.446 305.753 390.446H331.204C334.478 390.446 337.143 393.109 337.143 396.382V425.064C337.143 428.337 334.478 431 331.204 431ZM305.753 391.257C302.925 391.257 300.625 393.556 300.625 396.382V425.064C300.625 427.89 302.925 430.189 305.753 430.189H331.204C334.031 430.189 336.331 427.89 336.331 425.064V396.382C336.331 393.556 334.031 391.257 331.204 391.257H305.753Z" fill="#3F3D56"/>
<path d="M328.632 407.884H307.662C306.772 407.884 306.049 407.161 306.049 406.272C306.049 405.383 306.772 404.66 307.662 404.66H328.632C329.521 404.66 330.245 405.383 330.245 406.272C330.245 407.161 329.521 407.884 328.632 407.884Z" fill="#D8D8D8"/>
<path d="M328.632 416.806H307.662C306.772 416.806 306.049 416.083 306.049 415.194C306.049 414.305 306.772 413.582 307.662 413.582H328.632C329.521 413.582 330.245 414.305 330.245 415.194C330.245 416.083 329.521 416.806 328.632 416.806Z" fill="#D8D8D8"/>
<path d="M328.632 398.963H307.662C306.772 398.963 306.049 398.239 306.049 397.35C306.049 396.461 306.772 395.738 307.662 395.738H328.632C329.521 395.738 330.245 396.461 330.245 397.35C330.245 398.239 329.521 398.963 328.632 398.963Z" fill="#D8D8D8"/>
<path d="M109.178 238.966C105.203 238.987 101.562 239.903 98.7273 241.412L60.8457 239.221L60.3301 257.268L98.8127 257.547C101.664 259.025 105.314 259.903 109.289 259.882C118.37 259.834 125.707 255.113 125.677 249.337C125.646 243.561 118.26 238.918 109.178 238.966H109.178Z" fill="#FFB6B6"/>
<path d="M72.7828 107.531C72.7828 107.531 40.5805 103.945 32.3775 123.912C26.1111 139.165 9.83156 198.612 0.696199 232.647C-2.64373 245.09 6.43622 257.411 19.3162 257.921L76.1985 260.172L79.4886 235.022L38.8695 228.54L61.5915 160.41L72.7828 107.531Z" fill="#D8D8D8"/>
<path d="M155.452 23.6415C157.086 15.367 147.053 12.1532 139.539 8.31379L133.16 2.92113C126.472 -0.496223 118.653 -0.935664 111.624 1.71086L89.6873 9.009C79.7303 12.758 76.256 21.6823 70.5183 30.6381L60.9005 43.4713C55.2522 52.2875 56.9408 66.0514 58.2654 76.4362L58.8204 80.7877L53.5361 93.4175L94.1474 100.664L102.333 81.1731L97.2247 71.9094C95.4122 68.6225 96.1375 64.5173 98.9666 62.0496L98.9667 62.0496C109.144 53.1728 111.093 37.9378 111.093 37.9378L119.697 45.5208C125.949 47.8652 131.721 49.0741 137.02 49.1659C142.848 49.2668 148.104 48.0166 152.799 45.44L153.626 58.0041C151.199 72.8569 147.577 76.123 131.258 87.4858L150.899 107.06L151.819 99.0891C154.009 80.1275 163.469 66.9306 166.03 51.6748C167.801 41.1259 163.713 30.4411 155.452 23.6415H155.452V23.6415Z" fill="#2F2E41"/>
</g>
<defs>
<clipPath id="clip0_549_38897">
<rect width="542" height="431" fill="white"/>
</clipPath>
</defs>
</svg>
